<svg xmlns="http://www.w3.org/2000/svg" xmlns:xlink="http://www.w3.org/1999/xlink" width="500" zoomAndPan="magnify" viewBox="0 0 375 149.999998" height="200" preserveAspectRatio="xMidYMid meet" version="1.0"><defs><g/></defs><g fill="#183b56" fill-opacity="1"><g transform="translate(1.710941, 98.249996)"><g><path d="M 1.316406 0 L 20.730469 0 C 19.214844 -1.316406 18.425781 -4.871094 18.425781 -8.160156 L 18.425781 -55.34375 C 18.425781 -58.632812 19.214844 -62.1875 20.730469 -63.5 L 1.316406 -63.5 C 2.828125 -62.1875 3.621094 -58.566406 3.621094 -55.277344 L 3.621094 -8.226562 C 3.621094 -4.933594 2.828125 -1.316406 1.316406 0 Z M 1.316406 0 "/></g></g></g><g fill="#183b56" fill-opacity="1"><g transform="translate(23.754217, 98.249996)"><g><path d="M -2.632812 -39.351562 C 3.683594 -39.351562 3.816406 -31.785156 3.816406 -29.941406 L 3.816406 -8.160156 C 3.816406 -4.871094 3.027344 -1.316406 1.511719 0 L 19.609375 0 C 18.097656 -1.316406 17.308594 -4.933594 17.308594 -8.226562 L 17.308594 -29.347656 C 18.226562 -32.441406 20.269531 -35.601562 24.414062 -35.601562 C 27.636719 -35.601562 30.140625 -33.230469 30.140625 -29.019531 L 30.140625 -8.160156 C 30.140625 -4.871094 29.347656 -1.316406 27.835938 0 L 45.933594 0 C 44.417969 -1.316406 43.628906 -4.933594 43.628906 -8.226562 L 43.628906 -32.308594 C 43.628906 -42.246094 38.496094 -47.050781 30.140625 -47.050781 C 27.703125 -47.050781 25.730469 -46.328125 24.019531 -45.339844 L 17.308594 -31.914062 L 17.308594 -47.050781 C 12.898438 -44.351562 3.882812 -40.007812 -2.632812 -39.679688 Z M -2.632812 -39.351562 "/></g></g></g><g fill="#183b56" fill-opacity="1"><g transform="translate(70.999224, 98.249996)"><g><path d="M 1.316406 -32.375 C 1.316406 -16.1875 24.941406 -18.6875 24.941406 -13.753906 C 24.941406 -11.777344 21.78125 -11.582031 19.875 -11.582031 C 13.03125 -11.582031 6.382812 -15.136719 4.605469 -16.648438 C 3.75 -12.503906 2.699219 -7.898438 1.316406 -3.949219 C 6.644531 -0.722656 11.648438 0.988281 18.558594 0.988281 C 28.363281 0.988281 38.296875 -4.804688 38.296875 -14.675781 C 38.296875 -29.742188 14.609375 -28.558594 14.609375 -33.035156 C 14.609375 -34.351562 15.859375 -35.140625 17.964844 -35.140625 C 23.820312 -35.140625 32.113281 -31.585938 34.414062 -29.21875 C 35.335938 -33.429688 37.046875 -39.285156 38.296875 -42.574219 C 34.152344 -45.273438 26.71875 -47.050781 20.53125 -47.050781 C 11.121094 -47.050781 1.316406 -42.378906 1.316406 -32.375 Z M 1.316406 -32.375 "/></g></g></g><g fill="#183b56" fill-opacity="1"><g transform="translate(110.611332, 98.249996)"><g><path d="M -2.632812 -39.679688 L -2.632812 -39.351562 C 3.683594 -39.351562 3.816406 -31.785156 3.816406 -29.941406 L 3.816406 -8.160156 C 3.816406 -4.871094 3.027344 -1.316406 1.511719 0 L 19.609375 0 C 18.097656 -1.316406 17.308594 -4.933594 17.308594 -8.226562 L 17.308594 -47.050781 C 12.898438 -44.351562 3.882812 -40.007812 -2.632812 -39.679688 Z M 10.792969 -50.210938 C 15.660156 -50.210938 19.609375 -54.15625 19.609375 -58.960938 C 19.609375 -63.832031 15.660156 -67.777344 10.792969 -67.777344 C 5.988281 -67.777344 2.039062 -63.832031 2.039062 -58.960938 C 2.039062 -54.15625 5.988281 -50.210938 10.792969 -50.210938 Z M 10.792969 -50.210938 "/></g></g></g><g fill="#183b56" fill-opacity="1"><g transform="translate(131.535994, 98.249996)"><g><path d="M 16.78125 -6.121094 C 10.859375 -5.660156 2.367188 -2.304688 2.367188 7.042969 C 2.367188 14.804688 7.042969 20.070312 15.597656 20.070312 C 22.898438 20.070312 27.375 15.53125 34.613281 15.332031 C 37.96875 15.265625 40.339844 16.847656 41.523438 19.347656 L 43.957031 7.632812 C 43.367188 4.34375 40.007812 1.644531 36.457031 1.644531 C 29.21875 1.644531 24.347656 6.25 17.570312 6.25 C 14.015625 6.25 11.777344 3.949219 11.777344 0.59375 C 11.777344 -4.144531 15.660156 -5.59375 20.070312 -5.460938 C 20.859375 -5.394531 21.585938 -5.332031 22.375 -5.332031 C 33.5625 -5.332031 42.707031 -14.675781 42.707031 -26.125 C 42.707031 -34.351562 37.113281 -42.050781 29.875 -45.40625 C 36.585938 -44.746094 43.824219 -45.800781 46.390625 -54.816406 C 43.5625 -55.933594 40.535156 -57.316406 37.835938 -59.160156 C 38.234375 -53.695312 33.496094 -46.0625 25.402344 -46.789062 C 24.414062 -46.984375 23.425781 -47.050781 22.375 -47.050781 C 11.121094 -47.050781 1.972656 -37.707031 1.972656 -26.125 C 1.972656 -16.648438 8.226562 -8.621094 16.78125 -6.121094 Z M 22.308594 -34.746094 C 25.925781 -34.746094 28.824219 -31.585938 28.824219 -26.191406 C 28.824219 -20.730469 25.925781 -17.636719 22.308594 -17.636719 C 18.820312 -17.636719 15.925781 -20.730469 15.925781 -26.191406 C 15.925781 -31.585938 18.820312 -34.746094 22.308594 -34.746094 Z M 22.308594 -34.746094 "/></g></g></g><g fill="#183b56" fill-opacity="1"><g transform="translate(176.609566, 98.249996)"><g><path d="M -2.632812 -59.421875 L -2.632812 -59.09375 C 3.683594 -59.09375 3.816406 -51.523438 3.816406 -49.683594 L 3.816406 -8.160156 C 3.816406 -4.871094 3.027344 -1.316406 1.511719 0 L 19.609375 0 C 18.097656 -1.316406 17.308594 -4.933594 17.308594 -8.226562 L 17.308594 -29.347656 C 18.226562 -32.441406 20.269531 -35.601562 24.414062 -35.601562 C 27.636719 -35.601562 30.140625 -33.230469 30.140625 -29.019531 L 30.140625 -8.160156 C 30.140625 -4.871094 29.347656 -1.316406 27.835938 0 L 45.933594 0 C 44.417969 -1.316406 43.628906 -4.933594 43.628906 -8.226562 L 43.628906 -32.308594 C 43.628906 -42.246094 38.496094 -47.050781 30.140625 -47.050781 C 27.703125 -47.050781 25.730469 -46.328125 24.019531 -45.339844 L 17.308594 -31.914062 L 17.308594 -66.792969 C 12.898438 -64.09375 3.882812 -59.75 -2.632812 -59.421875 Z M -2.632812 -59.421875 "/></g></g></g><g fill="#183b56" fill-opacity="1"><g transform="translate(223.854574, 98.249996)"><g><path d="M 0 -33.5625 L 3.882812 -33.5625 L 3.882812 -15.660156 C 3.882812 -5.066406 8.949219 0.988281 18.753906 0.988281 C 22.964844 0.988281 27.242188 -0.527344 29.480469 -2.632812 C 28.757812 -5.59375 27.574219 -9.410156 27.175781 -13.359375 C 25.925781 -11.910156 24.414062 -11.121094 22.375 -11.121094 C 19.082031 -11.121094 17.308594 -12.632812 17.308594 -18.621094 L 17.308594 -33.5625 L 27.242188 -33.5625 L 27.242188 -46.0625 L 17.308594 -46.0625 L 17.308594 -59.683594 L 16.976562 -59.683594 C 13.292969 -54.421875 4.871094 -48.101562 0 -46.0625 Z M 0 -33.5625 "/></g></g></g><g fill="#183b56" fill-opacity="1"><g transform="translate(255.307376, 98.249996)"><g><path d="M 1.316406 0 L 20.730469 0 C 19.214844 -1.316406 18.425781 -4.871094 18.425781 -8.160156 L 18.425781 -55.34375 C 18.425781 -58.632812 19.214844 -62.1875 20.730469 -63.5 L 1.316406 -63.5 C 2.828125 -62.1875 3.621094 -58.566406 3.621094 -55.277344 L 3.621094 -8.226562 C 3.621094 -4.933594 2.828125 -1.316406 1.316406 0 Z M 1.316406 0 "/></g></g></g><g fill="#183b56" fill-opacity="1"><g transform="translate(277.350664, 98.249996)"><g><path d="M -2.632812 -39.351562 C 3.683594 -39.351562 3.816406 -31.785156 3.816406 -29.941406 L 3.816406 -8.160156 C 3.816406 -4.871094 3.027344 -1.316406 1.511719 0 L 19.609375 0 C 18.097656 -1.316406 17.308594 -4.933594 17.308594 -8.226562 L 17.308594 -29.347656 C 18.226562 -32.441406 20.269531 -35.601562 24.414062 -35.601562 C 27.636719 -35.601562 30.140625 -33.230469 30.140625 -29.019531 L 30.140625 -8.160156 C 30.140625 -4.871094 29.347656 -1.316406 27.835938 0 L 45.933594 0 C 44.417969 -1.316406 43.628906 -4.933594 43.628906 -8.226562 L 43.628906 -32.308594 C 43.628906 -42.246094 38.496094 -47.050781 30.140625 -47.050781 C 27.703125 -47.050781 25.730469 -46.328125 24.019531 -45.339844 L 17.308594 -31.914062 L 17.308594 -47.050781 C 12.898438 -44.351562 3.882812 -40.007812 -2.632812 -39.679688 Z M -2.632812 -39.351562 "/></g></g></g><g fill="#183b56" fill-opacity="1"><g transform="translate(324.595672, 98.249996)"><g><path d="M 3.816406 -49.683594 L 3.816406 -8.160156 C 3.816406 -4.871094 3.027344 -1.316406 1.511719 0 L 19.609375 0 C 18.097656 -1.316406 17.308594 -4.933594 17.308594 -8.226562 L 17.308594 -26.386719 L 32.441406 0 L 48.039062 0 L 32.769531 -26.585938 L 46.128906 -46.0625 L 30.535156 -46.0625 L 17.308594 -26.78125 L 17.308594 -66.792969 C 12.898438 -64.09375 3.882812 -59.75 -2.632812 -59.421875 L -2.632812 -59.09375 C 3.683594 -59.09375 3.816406 -51.523438 3.816406 -49.683594 Z M 3.816406 -49.683594 "/></g></g></g></svg>